<?xml version="1.0" encoding="utf-8"?>
<!-- Generator: Adobe Illustrator 27.6.1, SVG Export Plug-In . SVG Version: 6.00 Build 0)  -->
<svg version="1.1" id="Layer_1" xmlns="http://www.w3.org/2000/svg" xmlns:xlink="http://www.w3.org/1999/xlink" x="0px"
	y="0px" viewBox="0 0 860.87 857.74" style="enable-background:new 0 0 860.87 857.74;" xml:space="preserve">
	<g>
		<path d="M451.77,848.55c-15.11,0-30.23,0-45.34,0c-1.67-0.34-3.33-0.79-5.02-1.01c-18.98-2.5-38.22-3.74-56.9-7.66
		c-98.74-20.72-180.22-70.37-243.71-148.78c-50.16-61.94-79.95-132.82-89.81-211.98c-1.22-9.76-2.21-19.55-3.31-29.33
		c0-15.11,0-30.23,0-45.34c0.35-1.88,0.77-3.75,1.02-5.64c2.5-18.79,3.77-37.83,7.65-56.33c20.83-99.2,70.37-181.54,149.88-244.35
		C269,16.99,385.92-10.67,514.2,14.63c96.07,18.94,176.18,67.21,238.32,142.84c85.32,103.83,114.97,223.02,89.08,354.68
		c-19.56,99.46-70.87,180.88-149.84,244.37c-61.65,49.56-132.12,78.96-210.68,88.74C471.32,846.47,461.54,847.46,451.77,848.55z
		 M362.76,426.95c0-67.61,0-135.22-0.01-202.82c0-2.32,0.05-4.66-0.19-6.96c-0.98-9.42-7.89-15.13-17.98-14.98
		c-8.9,0.13-15.56,6.51-16.24,15.63c-0.16,2.12-0.11,4.26-0.11,6.39c0,134.83,0,269.66,0,404.48c0,2.32-0.06,4.66,0.14,6.97
		c0.75,8.78,7.42,15.1,15.99,15.27c10.16,0.2,17.12-5.41,18.17-14.77c0.26-2.3,0.21-4.64,0.21-6.96
		C362.76,561.78,362.76,494.36,362.76,426.95z M529.97,426.81c0-67.41,0-134.83-0.01-202.24c0-2.52,0.07-5.05-0.18-7.55
		c-0.87-8.67-7.64-14.74-16.38-14.84c-9.79-0.11-16.64,5.5-17.72,14.62c-0.27,2.3-0.23,4.64-0.23,6.96
		c-0.01,135.21-0.01,270.43,0,405.65c0,2.13-0.04,4.27,0.17,6.38c0.94,9.47,7.82,15.26,17.85,15.13
		c8.95-0.11,15.67-6.42,16.38-15.48c0.18-2.31,0.12-4.65,0.12-6.97C529.97,561.25,529.97,494.03,529.97,426.81z M120.58,443.36
		c0,21.11,0,42.21,0,63.32c0,30.59-0.07,61.19,0.04,91.78c0.04,10.75,7.7,18.54,17.59,18.37c9.75-0.16,16.86-7.77,17.08-18.28
		c0.02-1.16,0.01-2.32,0.01-3.49c0-100.69,0-201.37,0-302.06c0-1.94,0.08-3.88-0.06-5.81c-0.66-8.82-7.47-15.68-16.07-16.29
		c-8.63-0.6-16.32,5.21-18.1,13.92c-0.5,2.43-0.47,5-0.47,7.5C120.57,342.68,120.58,393.02,120.58,443.36z M702.91,444.06
		c0,50.34,0,100.69,0,151.03c0,1.94-0.09,3.88,0.09,5.81c0.81,8.77,7.75,15.45,16.44,15.92c8.33,0.45,15.88-5.32,17.65-13.78
		c0.55-2.62,0.52-5.38,0.52-8.08c0.02-100.69,0.02-201.37,0.02-302.06c0-1.94,0.09-3.88-0.08-5.81c-0.89-9.57-8.66-16.54-17.95-16.2
		c-9.07,0.34-16.15,7.51-16.65,16.91c-0.1,1.93-0.04,3.87-0.04,5.81C702.91,343.76,702.91,393.91,702.91,444.06z M293.65,441.09
		c0-15.5,0-31,0-46.5c0-23.64,0.08-47.27-0.04-70.91c-0.06-11.69-9.04-19.59-20.01-17.98c-8.82,1.29-14.63,8.6-14.64,18.78
		c-0.03,77.5-0.02,154.99-0.01,232.49c0,1.35,0.02,2.73,0.25,4.05c1.69,9.91,10.51,16.1,20.41,14.39
		c8.53-1.48,14.01-8.65,14.02-18.66C293.67,518.2,293.65,479.65,293.65,441.09z M599.26,440.5c0-2.91,0-5.81,0-8.72
		c0-35.65,0.03-71.3-0.02-106.94c-0.01-11.28-6.68-18.92-16.61-19.29c-10.38-0.39-18.05,7.22-18.06,18.36
		c-0.05,77.88-0.03,155.77-0.02,233.65c0,0.97,0.01,1.94,0.13,2.9c1.15,9.01,8.54,15.38,17.6,15.21
		c10.04-0.19,16.93-7.75,16.95-18.92C599.3,518,599.26,479.25,599.26,440.5z M443.62,408.97c0,2.57,0,4.86,0,7.14
		c0,40.48,0.02,80.95-0.02,121.43c-0.01,8.44-5.87,14.42-13.95,14.56c-9.12,0.15-14.66-4.87-15.03-13.86
		c-0.22-5.41,0.54-10.95-0.36-16.23c-0.62-3.62-2.58-7.72-5.26-10.14c-4.78-4.3-10.93-4.68-16.91-2.03
		c-6.16,2.73-9.89,7.54-10.22,14.33c-0.34,6.96-0.59,13.98-0.05,20.9c1.68,21.29,11.58,30.29,33.03,30.45
		c10.84,0.08,21.7,0.19,32.53-0.15c16.3-0.52,26.29-9.98,27.68-26.26c0.66-7.7,0.72-15.47,0.7-23.21
		c-0.09-29.8,0.24-59.62-0.71-89.39C474.48,418.17,463.05,408.74,443.62,408.97z M414.3,441.16c0-2.72,0-5.02,0-7.32
		c0-29.81-0.04-59.63,0.03-89.44c0.02-9.63,5.86-15.55,14.9-15.47c8.5,0.08,14.37,6.32,14.39,15.44c0.02,11.03-0.3,22.08,0.12,33.09
		c0.1,2.56,1.98,5.93,4.1,7.39c10.68,7.36,25.6,0.31,26.19-12.77c0.59-13.1,0.54-26.35-0.72-39.39
		c-1.64-17.05-10.55-25.24-27.65-26.25c-11.76-0.7-23.64-0.71-35.4,0c-17.81,1.07-27.52,10.62-27.97,28.49
		c-0.65,25.92-0.68,51.89-0.01,77.81C382.78,431.82,395.58,442.77,414.3,441.16z M86.07,427.14c0-20.73,0.01-41.46-0.01-62.19
		c0-3.1,0.07-6.21-0.21-9.29c-0.71-7.76-6.36-13.91-13.76-15.2c-8.19-1.44-16.01,2.37-18.97,9.96c-1.29,3.31-1.69,7.15-1.7,10.75
		c-0.11,43.59-0.07,87.19-0.06,130.78c0,2.13-0.03,4.28,0.3,6.37c1.22,7.84,7.52,13.78,15.21,14.53c8.05,0.77,15.42-3.46,17.93-10.9
		c1.02-3.03,1.19-6.46,1.21-9.71C86.12,470.54,86.07,448.84,86.07,427.14z M806.84,426.5c0-22.67,0.1-45.34-0.04-68.01
		c-0.07-11.39-8.07-18.99-18.72-18.27c-9.71,0.65-15.9,7.96-15.91,19.25c-0.06,42.43-0.03,84.86-0.02,127.29
		c0,3.49-0.11,6.99,0.19,10.45c0.82,9.63,8.54,16.21,18.17,15.69c9.51-0.51,16.25-7.91,16.3-18.4
		C806.92,471.84,806.84,449.17,806.84,426.5z M189.87,426.37c0,10.85,0,21.7,0,32.55c0,0.39,0,0.78,0.01,1.16
		c0.27,10.67,7.17,18.17,16.93,18.4c9.9,0.23,17.48-7.37,17.57-18.32c0.18-22.47,0.19-44.95-0.01-67.42
		c-0.09-10.65-7.48-18.1-17.19-18.12c-9.94-0.02-17.16,7.64-17.28,18.62C189.78,404.28,189.87,415.32,189.87,426.37z M668.33,426.55
		c0-11.04,0.09-22.09-0.02-33.13c-0.11-11.06-7.16-18.7-17.1-18.81c-9.91-0.1-17.31,7.5-17.39,18.52c-0.17,22.28-0.17,44.56,0,66.84
		c0.08,11.01,7.49,18.62,17.39,18.52c9.94-0.11,16.99-7.75,17.1-18.81C668.42,448.64,668.33,437.6,668.33,426.55z" />
	</g>
</svg>